<svg xmlns="http://www.w3.org/2000/svg" xmlns:xlink="http://www.w3.org/1999/xlink" width="154.6002197265625" height="154.6999969482422" viewBox="0 0 154.6002197265625 154.6999969482422" fill="none">
<path d="M77.3 2.9C36.3 2.9 2.9 36.3 2.9 77.3C2.9 118.3 36.3 151.8 77.4 151.8C118.5 151.8 151.9 118.4 151.9 77.3C151.9 36.2 118.4 2.9 77.3 2.9ZM77.3 154.7C34.7 154.7 0 120 0 77.3C0 34.7 34.7 0 77.3 0C119.9 0 154.6 34.7 154.6 77.3C154.7 120 120 154.7 77.3 154.7Z" fill-rule="evenodd"  fill="#243870" >
</path>
<path d="M147.3 88.8L146.8 92.2L146.5 92.2L146.5 92C146.5 91.9 146.5 91.7 146.4 91.4C146.3 91.1 146.2 90.9 146 90.7C145.8 90.5 145.5 90.2 145.1 89.8L141.7 86.9L139.3 86.6C138.7 86.5 138.3 86.5 138.2 86.6C138 86.8 137.8 87 137.8 87.4L137.8 87.7L137.5 87.7L138.1 83.6L138.4 83.6L138.4 83.9C138.3 84.3 138.4 84.6 138.7 84.8C138.8 84.9 139.2 85 139.7 85.1L142 85.4L146.5 83.3C147 83.1 147.4 82.9 147.5 82.8C147.6 82.7 147.8 82.5 148 82.2C148.1 82.1 148.1 82 148.1 81.8L148.4 81.8L147.8 86L147.5 86L147.5 85.8C147.5 85.6 147.5 85.4 147.4 85.2C147.3 85 147.2 84.9 147 84.8C146.8 84.8 146.5 84.9 146 85.1L142.6 86.7L145.3 89C145.7 89.4 146 89.5 146.2 89.6C146.3 89.6 146.5 89.6 146.6 89.5C146.7 89.4 146.8 89.4 146.9 89.2C147 89.1 147 88.9 147.1 88.6L147.3 88.8ZM148.2 79.1L145.9 79.2L145.9 78.9C146.3 78.8 146.6 78.8 146.8 78.7C147.1 78.5 147.3 78.3 147.4 78.1C147.5 77.8 147.6 77.5 147.6 77.1L147.6 75.7L140.1 75.8C139.5 75.8 139.1 75.9 139 76C138.8 76.2 138.7 76.5 138.7 76.9L138.7 77.2L138.4 77.2L138.3 73L138.6 73L138.6 73.3C138.6 73.7 138.7 74 139 74.2C139.2 74.3 139.5 74.4 140.1 74.3L147.6 74.2L147.6 73C147.6 72.5 147.6 72.2 147.5 72C147.4 71.7 147.2 71.5 147 71.4C146.7 71.2 146.4 71.1 145.9 71.1L145.9 70.8L148.2 70.9L148.2 79.1ZM137.9 69.4L137.6 69.4L136.9 65.2L137.2 65.2L137.3 65.5C137.4 65.9 137.5 66.2 137.8 66.3C138 66.4 138.4 66.4 138.9 66.3L145.2 65.2C145.7 65.1 146 65 146.2 64.9C146.3 64.8 146.4 64.7 146.5 64.6C146.6 64.4 146.6 64.1 146.6 63.9L146.5 63.6L146.8 63.6L147.5 67.8L147.2 67.8L147.1 67.4C147 67 146.9 66.7 146.6 66.6C146.4 66.5 146 66.5 145.5 66.6L139.2 67.7C138.7 67.8 138.4 67.9 138.2 68C138.1 68.1 138 68.2 137.9 68.4C137.8 68.6 137.8 68.9 137.8 69.1L137.9 69.4ZM145.8 59.9L142.5 60.9L142.4 60.6C143 60.3 143.5 60 143.8 59.7C144.1 59.4 144.3 59 144.4 58.5C144.5 58 144.5 57.6 144.3 57.2C144.2 56.7 143.9 56.4 143.5 56.1C143.1 55.9 142.7 55.8 142.4 55.9C142.1 56 141.9 56.2 141.7 56.4C141.4 56.8 141.2 57.6 140.9 58.9C140.7 59.9 140.5 60.6 140.4 61C140.2 61.4 140 61.7 139.7 62C139.4 62.3 139.1 62.5 138.7 62.6C138 62.8 137.3 62.7 136.6 62.3C135.9 61.9 135.4 61.3 135.2 60.4C135.1 60.1 135.1 59.9 135 59.6C135 59.5 135 59.1 135 58.6C135 58.1 135 57.8 135 57.7C135 57.6 134.9 57.5 134.8 57.5C134.7 57.5 134.6 57.4 134.3 57.5L134.2 57.2L137.4 56.2L137.5 56.5C136.9 56.8 136.4 57.1 136.1 57.5C135.8 57.8 135.6 58.2 135.5 58.7C135.4 59.2 135.4 59.7 135.6 60.2C135.8 60.8 136.1 61.2 136.5 61.4C136.9 61.6 137.3 61.7 137.7 61.6C137.9 61.5 138.1 61.4 138.3 61.2C138.5 61 138.7 60.7 138.8 60.4C138.9 60.2 139 59.6 139.2 58.7C139.4 57.8 139.6 57.1 139.8 56.7C140 56.3 140.2 55.9 140.5 55.7C140.8 55.4 141.1 55.2 141.5 55.1C142.2 54.9 142.8 55 143.5 55.3C144.1 55.7 144.6 56.3 144.8 57.1C145 57.6 145 58.2 144.9 58.8C144.9 59.1 144.9 59.3 144.9 59.4C144.9 59.5 145 59.6 145.1 59.7C145.2 59.8 145.4 59.8 145.6 59.8L145.8 59.9ZM135.2 47.2L138.8 45.3C139.1 45.7 139.3 46 139.5 46.2C139.8 46.8 139.9 47.3 139.7 47.8C139.5 48.3 139.2 48.7 138.6 49C138 49.3 137.5 49.3 136.9 49.1C136.3 48.9 135.8 48.3 135.4 47.5C135.4 47.5 135.4 47.4 135.3 47.4C135.3 47.3 135.2 47.2 135.2 47.2ZM134 55.7L134.2 55.6C134 55.1 133.9 54.6 133.9 54.3C133.9 53.9 134.1 53.4 134.5 52.6L136 49.5C136.6 50.1 137.1 50.5 137.7 50.7C138.3 50.8 138.8 50.8 139.4 50.5C139.9 50.2 140.2 49.9 140.5 49.4C140.7 48.9 140.7 48.4 140.6 47.9C140.5 47.4 140.2 46.7 139.7 45.7L138 42.5L137.8 42.6L138 42.9C138.2 43.2 138.2 43.5 138.1 43.8C138 44 137.7 44.2 137.2 44.5L131.6 47.5C131.1 47.8 130.8 47.9 130.6 47.9C130.3 47.9 130 47.7 129.8 47.3L129.6 47L129.4 47.1L131.4 50.8L131.6 50.7L131.4 50.4C131.2 50.1 131.2 49.8 131.3 49.5C131.4 49.3 131.7 49.1 132.2 48.8L134.7 47.5C134.7 47.6 134.8 47.6 134.8 47.7C134.8 47.8 134.9 47.8 134.9 47.9C135 48 135.1 48.2 135.2 48.4L132.7 53.5L134 55.7ZM132.8 35.9L129.7 38.2L131 40C131.3 40.5 131.6 40.7 131.9 40.8C132.2 40.9 132.6 40.8 133.1 40.4L133.3 40.6L130.5 42.6L130.3 42.4C130.6 42.1 130.9 41.8 130.9 41.7C131 41.5 131 41.3 131 41.1C131 40.9 130.8 40.6 130.6 40.3L129.3 38.6L126.7 40.5C126.3 40.8 126.1 40.9 126.1 41C126 41.1 126 41.2 126 41.3C126 41.4 126.1 41.6 126.3 41.8L127.3 43.2C127.6 43.6 127.9 44 128.1 44.1C128.3 44.3 128.6 44.4 128.9 44.4C129.3 44.5 129.9 44.4 130.5 44.3L130.7 44.5L128.2 45.3L123.7 39.2L123.9 39L124.1 39.3C124.2 39.5 124.4 39.6 124.6 39.7C124.8 39.8 124.9 39.8 125.1 39.8C125.3 39.8 125.5 39.6 125.9 39.3L131.1 35.5C131.6 35.1 131.9 34.9 131.9 34.7C132 34.4 131.9 34.2 131.6 33.8L131.4 33.5L131.6 33.3L136.1 39.4L134.4 40.8L134.2 40.6C134.6 40.2 134.8 39.9 134.9 39.7C135 39.5 135 39.3 134.9 39C134.8 38.8 134.7 38.5 134.4 38.1L132.8 35.9ZM129.5 30.8L127.3 28.7L127.1 28.9L127.2 29C127.4 29.3 127.5 29.5 127.5 29.7C127.5 29.9 127.5 30 127.4 30.1C127.3 30.3 126.9 30.5 126.4 30.7L120.8 33.3L122.9 27.4C123.1 26.9 123.3 26.5 123.4 26.3C123.5 26.2 123.7 26.1 123.8 26.1C124 26.1 124.2 26.3 124.6 26.5L124.8 26.3L121.9 23.6L121.7 23.8C121.9 24 122 24.2 122.1 24.4C122.2 24.6 122.2 24.8 122.2 25C122.2 25.1 122.1 25.4 121.9 25.9L118.8 34.6L119 34.8L127.2 31C127.7 30.8 128.1 30.7 128.4 30.7C128.6 30.7 128.9 30.8 129.2 31L129.5 30.8ZM114 29.9L113.8 30.1L110.3 27.7L110.5 27.5L110.8 27.7C111.1 27.9 111.4 28 111.7 27.9C111.9 27.8 112.1 27.6 112.5 27.1L116.1 21.9C116.4 21.5 116.5 21.2 116.6 21C116.6 20.9 116.6 20.7 116.5 20.6C116.4 20.4 116.2 20.2 116.1 20.1L115.8 19.9L116 19.7L119.5 22.1L119.3 22.3L119 22.1C118.7 21.9 118.4 21.8 118.1 21.9C117.9 22 117.6 22.2 117.3 22.7L113.7 27.9C113.4 28.3 113.3 28.6 113.2 28.8C113.2 28.9 113.2 29.1 113.3 29.2C113.4 29.4 113.5 29.6 113.7 29.7L114 29.9ZM104.2 13.3L104.1 13.5C104.4 13.6 104.5 13.7 104.6 13.8C104.8 14 105 14.2 105 14.4C105.1 14.6 105.2 14.9 105.3 15.3L102.2 21.4C102 21.9 101.7 22.2 101.6 22.3C101.3 22.4 101 22.4 100.6 22.2L100.3 22L100.2 22.2L103.3 23.8L103.4 23.6L103.1 23.4C102.8 23.2 102.6 23 102.5 22.7C102.5 22.5 102.6 22.1 102.8 21.6L105.6 16.2L107.8 26.2L108 26.3L111.8 18.9C112.1 18.4 112.3 18.1 112.4 18C112.7 17.9 113 17.9 113.4 18.1L113.7 18.3L113.8 18.1L110.7 16.5L110.6 16.7L110.9 16.9C111.2 17.1 111.4 17.3 111.5 17.6C111.6 17.8 111.4 18.2 111.2 18.7L108.6 23.8L106.6 14.5L104.2 13.3ZM98.2 11.6L98.3 11.3L101.7 12.3L101.6 12.6L101.2 12.5C100.8 12.4 100.5 12.5 100.2 12.7C100.1 12.8 99.9 13.1 99.8 13.7L98.7 17.5C98.4 18.5 98.1 19.2 97.8 19.6C97.5 20.1 97 20.4 96.3 20.6C95.6 20.8 94.8 20.8 93.9 20.5C92.9 20.2 92.1 19.8 91.7 19.3C91.3 18.8 91 18.2 91 17.5C91 17 91.1 16.2 91.4 15.1L92.5 11.4C92.7 10.8 92.7 10.4 92.6 10.2C92.5 10 92.3 9.80001 91.9 9.70001L91.5 9.60001L91.6 9.30001L95.7 10.5L95.6 10.8L95.2 10.7C94.8 10.6 94.5 10.6 94.3 10.8C94.1 10.9 94 11.3 93.8 11.8L92.6 16C92.5 16.4 92.4 16.8 92.3 17.3C92.2 17.8 92.2 18.2 92.3 18.5C92.4 18.8 92.6 19.1 92.9 19.4C93.2 19.7 93.6 19.9 94 20C94.6 20.2 95.2 20.2 95.8 20.1C96.4 20 96.8 19.7 97.1 19.4C97.4 19 97.7 18.3 98 17.3L99.1 13.5C99.3 12.9 99.3 12.5 99.2 12.3C99.1 12 98.8 11.9 98.5 11.8L98.2 11.6ZM83.2 8.10001L83.5 11.2L83.2 11.2C82.9 10.4 82.6 9.80001 82.2 9.50001C81.6 8.90001 80.9 8.70001 79.9 8.70001C78.6 8.70001 77.7 9.20001 77 10.2C76.5 11 76.2 12 76.2 13.2C76.2 14.1 76.4 15 76.7 15.8C77.1 16.6 77.5 17.1 78.1 17.5C78.7 17.9 79.3 18 79.9 18C80.3 18 80.6 18 81 17.9C81.3 17.8 81.7 17.7 82 17.5L82 14.7C82 14.2 82 13.9 81.9 13.7C81.8 13.5 81.7 13.4 81.6 13.4C81.4 13.3 81.2 13.3 80.8 13.3L80.8 13L84.6 13L84.6 13.3L84.4 13.3C84 13.3 83.8 13.4 83.6 13.7C83.5 13.9 83.5 14.2 83.5 14.8L83.5 17.8C82.9 18.1 82.4 18.3 81.9 18.5C81.4 18.6 80.8 18.7 80.1 18.7C78.2 18.7 76.8 18.1 75.8 16.9C75.1 16 74.7 14.9 74.7 13.7C74.7 12.8 74.9 12 75.3 11.2C75.8 10.3 76.5 9.50001 77.3 9.00001C78 8.60001 78.9 8.40001 79.9 8.40001C80.3 8.40001 80.6 8.40001 80.9 8.50001C81.2 8.60001 81.6 8.70001 82.1 8.90001C82.4 9.00001 82.6 9.10001 82.6 9.10001C82.7 9.10001 82.8 9.10001 82.8 9.00001C82.9 8.90001 82.9 8.80001 82.9 8.50001L83.2 8.50001L83.2 8.10001ZM60.8 9.90001L60.8 10.2C61.1 10.2 61.3 10.1 61.4 10.2C61.7 10.2 61.9 10.3 62.1 10.4C62.3 10.5 62.5 10.7 62.8 11L63.9 17.8C64 18.3 64 18.7 63.9 18.9C63.8 19.2 63.5 19.3 63.1 19.4L62.8 19.5L62.8 19.8L66.2 19.3L66.2 19L65.9 19.1C65.5 19.2 65.2 19.1 65 18.9C64.8 18.8 64.7 18.4 64.6 17.8L63.7 11.8L71.3 18.6L71.6 18.6L70.3 10.4C70.2 9.90001 70.2 9.50001 70.3 9.30001C70.4 9.00001 70.7 8.90001 71.1 8.80001L71.4 8.70001L71.4 8.40001L68 8.90001L68 9.20001L68.4 9.00001C68.8 8.90001 69.1 9.00001 69.3 9.20001C69.5 9.30001 69.6 9.70001 69.7 10.3L70.6 15.9L63.5 9.50001L60.8 9.90001ZM56.2 17.6L53.2 14.5L53.1 18.8L56.2 17.6ZM56.6 18L53.1 19.4L53.1 21.1C53.1 21.5 53.1 21.8 53.2 22C53.3 22.1 53.4 22.2 53.5 22.3C53.7 22.4 54 22.3 54.4 22.2L54.5 22.4L51.6 23.6L51.5 23.4C51.9 23.2 52.1 23 52.1 22.8C52.2 22.5 52.3 22 52.3 21.2L52.5 12.4L52.7 12.3L58.9 18.6C59.4 19.1 59.8 19.4 60.1 19.5C60.4 19.6 60.7 19.6 61.1 19.5L61.2 19.7L57.6 21.2L57.5 21C57.9 20.8 58.1 20.7 58.2 20.5C58.3 20.3 58.3 20.2 58.2 20C58.1 19.8 57.9 19.5 57.6 19.2L56.6 18ZM50.3 24L50 24.2C49.8 24.3 49.6 24.4 49.3 24.4C49.1 24.4 49 24.4 48.9 24.3C48.8 24.2 48.6 23.9 48.3 23.5L45.2 17.9C44.9 17.4 44.8 17 44.8 16.8C44.8 16.5 45 16.3 45.4 16.1L45.7 15.9L45.6 15.7L41.9 17.7L42 17.9L42.3 17.7C42.5 17.6 42.7 17.5 43 17.5C43.2 17.5 43.3 17.5 43.4 17.6C43.5 17.7 43.7 18 44 18.4L47.1 24C47.4 24.5 47.5 24.9 47.5 25.1C47.5 25.4 47.3 25.6 46.9 25.8L46.6 26L46.7 26.2L50.4 24.2L50.3 24ZM43.6 24.9L43.8 24.8L44.6 27.5L38.4 31.9L38.2 31.7L38.5 31.5C38.8 31.3 39 31 39 30.7C39 30.5 38.8 30.2 38.5 29.7L34.9 24.5C34.5 24 34.3 23.7 34.1 23.7C33.8 23.6 33.5 23.7 33.2 23.9L32.9 24L32.7 23.8L36.4 21.2L36.6 21.4C36.2 21.7 35.9 21.9 35.8 22.1C35.7 22.3 35.6 22.5 35.7 22.7C35.7 22.9 35.9 23.2 36.2 23.7L39.7 28.8C39.9 29.1 40.1 29.3 40.3 29.4C40.4 29.4 40.5 29.5 40.6 29.4C40.7 29.4 41 29.2 41.6 28.8L42.2 28.4C42.8 28 43.2 27.6 43.4 27.4C43.6 27.1 43.7 26.8 43.7 26.4C43.8 26 43.7 25.5 43.6 24.9ZM37.1 32.8L36.8 33C36.6 33.2 36.4 33.3 36.2 33.3C36 33.3 35.9 33.3 35.8 33.3C35.6 33.2 35.4 33 35.1 32.6L30.7 28C30.3 27.6 30.1 27.3 30.1 27.1C30.1 26.8 30.2 26.5 30.5 26.2L30.8 26L30.6 25.8L27.5 28.7L27.7 28.9L28 28.7C28.2 28.5 28.4 28.4 28.6 28.4C28.8 28.4 28.9 28.4 29 28.4C29.2 28.5 29.4 28.7 29.7 29.1L34 33.8C34.4 34.2 34.6 34.5 34.6 34.7C34.6 35 34.5 35.3 34.2 35.6L34 35.7L34.2 35.9L37.3 33L37.1 32.8ZM23.3 33.5L23.1 33.3L25.9 30.2L26.1 30.4L25.9 30.7C25.6 31 25.5 31.3 25.6 31.6C25.6 31.8 25.9 32.1 26.3 32.5L29.9 35.7C30.5 36.2 30.8 36.7 31.1 37.1C31.3 37.5 31.4 38 31.4 38.5C31.4 39 31.2 39.5 30.8 39.9C30.5 40.2 30.2 40.4 29.8 40.5C29.5 40.5 29.2 40.5 29 40.3C28.8 40.1 28.7 40 28.7 39.8C28.7 39.6 28.8 39.4 28.9 39.2C29 39 29.2 39 29.3 39C29.5 39 29.8 39 30.2 39.2C30.5 39.3 30.7 39.3 30.8 39.1C30.9 39 30.9 38.9 30.9 38.7C30.9 38.5 30.7 38.3 30.4 38L25.4 33.5C25 33.2 24.8 33 24.6 32.9C24.5 32.9 24.3 32.9 24.2 32.9C24 33 23.8 33.1 23.6 33.3L23.3 33.5ZM22.1 45L17.8 44.5L20.4 47.9L22.1 45ZM22.6 45.1L20.8 48.4L21.8 49.7C22.1 50 22.3 50.2 22.4 50.3C22.5 50.4 22.7 50.4 22.8 50.3C23 50.2 23.2 50 23.4 49.6L23.6 49.7L22.1 52.4L22 52.4C22.1 52 22.2 51.7 22.1 51.6C22 51.3 21.7 50.8 21.3 50.2L15.9 43.2L16 43L24.8 44C25.5 44.1 26 44.1 26.3 44C26.6 43.9 26.8 43.7 27 43.3L27.2 43.4L25.3 46.8L25.1 46.7C25.3 46.3 25.3 46.1 25.3 45.9C25.3 45.7 25.2 45.6 25 45.5C24.8 45.4 24.5 45.3 24 45.3L22.6 45.1ZM8.70002 60.2L9.00002 60.3C9.00002 60 9.10002 59.8 9.20002 59.7C9.40002 59.5 9.60002 59.3 9.70002 59.2C9.90002 59.1 10.1 59 10.5 58.8L16.9 61.1C17.4 61.3 17.7 61.5 17.8 61.6C18 61.9 18 62.2 17.9 62.6L17.8 62.9L18.1 63L19.3 59.8L19 59.7L18.9 60C18.8 60.4 18.6 60.6 18.3 60.7C18.1 60.8 17.7 60.7 17.2 60.5L11.5 58.4L21.2 55L21.3 54.8L13.5 52C13 51.8 12.7 51.6 12.6 51.5C12.4 51.3 12.4 50.9 12.5 50.5L12.6 50.2L12.3 50.1L11.1 53.3L11.4 53.4L11.5 53.1C11.6 52.7 11.8 52.5 12.1 52.4C12.3 52.3 12.7 52.4 13.2 52.6L18.5 54.5L9.50002 57.6L8.70002 60.2ZM17.6 64.6L17.9 64.6L17.2 68.8L16.9 68.8L17 68.5C17.1 68.1 17 67.8 16.8 67.6C16.7 67.5 16.3 67.3 15.7 67.2L9.30002 66C8.80002 65.9 8.50002 65.9 8.30002 65.9C8.20002 65.9 8.10002 66 7.90002 66.1C7.70002 66.3 7.70002 66.5 7.60002 66.7L7.50002 67L7.20002 67L7.90002 62.8L8.20002 62.8L8.10002 63.2C8.00002 63.6 8.10002 63.9 8.30002 64.1C8.40002 64.2 8.80002 64.4 9.40002 64.5L15.7 65.6C16.2 65.7 16.5 65.7 16.7 65.7C16.8 65.7 16.9 65.6 17.1 65.5C17.3 65.3 17.3 65.1 17.4 64.9L17.6 64.6ZM11.1 77.4L11.2 72.8L8.40002 72.8C7.90002 72.8 7.60002 72.8 7.40002 72.9C7.30002 72.9 7.20002 73 7.10002 73.2C7.00002 73.4 6.90002 73.6 6.90002 73.9L6.90002 74.2L6.60002 74.2L6.70002 70L7.00002 70L7.00002 70.3C7.00002 70.5 7.00002 70.8 7.20002 71C7.30002 71.2 7.40002 71.3 7.50002 71.3C7.70002 71.4 8.00002 71.4 8.50002 71.4L14.9 71.5C15.4 71.5 15.7 71.5 15.9 71.4C16 71.4 16.1 71.3 16.2 71.1C16.3 70.9 16.4 70.7 16.4 70.4L16.4 70.1L16.7 70.1L16.6 74.3L16.3 74.3L16.3 74C16.3 73.6 16.2 73.3 16 73.1C15.8 73 15.5 72.9 14.9 72.9L11.9 72.8L11.8 77.4L14.8 77.5C15.3 77.5 15.6 77.5 15.8 77.4C15.9 77.4 16 77.3 16.1 77.1C16.2 76.9 16.3 76.7 16.3 76.4L16.3 76L16.6 76L16.5 80.2L16.2 80.2L16.2 79.9C16.2 79.5 16.1 79.2 15.9 79C15.7 78.9 15.4 78.8 14.8 78.8L8.40002 78.7C7.90002 78.7 7.60002 78.7 7.40002 78.8C7.30002 78.8 7.20002 78.9 7.10002 79.1C7.00002 79.3 6.90002 79.5 6.90002 79.8L6.90002 80.1L6.60002 80.1L6.70002 75.9L7.00002 75.9L7.00002 76.3C7.00002 76.5 7.00002 76.8 7.20002 77C7.30002 77.2 7.40002 77.3 7.50002 77.3C7.70002 77.4 8.00002 77.4 8.50002 77.4L11.1 77.4ZM6.40002 83.7L9.60002 83L9.60002 83.2C8.70002 83.6 8.00002 84.2 7.60002 84.8C7.20002 85.4 7.10002 86.1 7.20002 86.9C7.30002 87.5 7.50002 88.1 7.90002 88.6C8.30002 89.1 8.90002 89.4 9.60002 89.6C10.4 89.8 11.3 89.8 12.3 89.7C13.2 89.6 13.9 89.3 14.5 89C15.1 88.6 15.5 88.1 15.8 87.5C16.1 86.9 16.1 86.2 16 85.5C15.9 84.9 15.7 84.3 15.4 83.9C15.1 83.5 14.4 83 13.6 82.5L13.7 82.3C14.6 82.7 15.4 83.1 15.8 83.7C16.3 84.3 16.6 85 16.7 85.9C16.9 87.5 16.5 88.8 15.4 89.9C14.6 90.7 13.6 91.2 12.4 91.3C11.4 91.4 10.5 91.3 9.60002 91C8.70002 90.7 8.00002 90.2 7.50002 89.5C6.90002 88.8 6.60002 88 6.50002 87.1C6.40002 86.4 6.50002 85.7 6.70002 84.9C6.80002 84.7 6.80002 84.5 6.80002 84.4C6.80002 84.3 6.70002 84.2 6.60002 84.1C6.80002 84 6.60002 84 6.40002 83.9L6.40002 83.7Z" fill-rule="evenodd"  fill="#93958A" >
</path>
<path d="M23.4 100.4C18.5 88.6 18.2 71.4 22.6 58.5C32.6 29.4 65.6 14.3 96.1 24.8C110.9 29.9 122.7 40.3 129.4 54.1C136.1 68 137 84.1 131.8 99.5L130 99C140.3 68.1 125.5 37 95.5 26.7C66 16.5 34.2 31.1 24.5 59.2C20.3 71.4 20.6 88.5 25.2 99.7L23.4 100.4Z" fill-rule="evenodd"  fill="#93958A" >
</path>
<path d="M45.5 93.5L106.3 92L75.8 64L45.5 93.5ZM35.1 99.3L74.5 28L118.8 97.6L75.8 57.7L35.1 99.3ZM35.1 99.6C35.1 99.6 45.7 102.6 65.3 96.1C65.3 96.1 72.1 93.1 77.2 99.9C77.2 99.9 81.7 92.2 92 96.4C94.3 97.3 96.5 97.4 98.7 97.9C106.5 99.6 113.8 99.3 119.4 98L125.2 106.9C125.2 106.9 121.5 109.5 98.8 106.5C98.8 106.5 85 102.6 83.6 106.4L82.8 108.3L72.2 108.3C72.2 108.3 70.7 104.1 63.8 105.5C56.9 106.9 42.8 110.5 29.5 109.2L33 103L35.1 99.6Z" fill-rule="evenodd"  fill="#243870" >
</path>
<path d="M35.3 114.3C36.3 113.7 36.8 114.5 37.5 114.9C37.6 115 37.8 115 37.9 114.9C39.2 113.8 40.5 112.6 41.6 111.5C42 111.1 42.5 111 43.1 111.3C43.2 111.3 43.2 111.4 43.3 111.5C43.8 112.8 42.7 114.2 41.7 114.8C41.2 115.1 40.8 115.5 40.4 115.9C40.3 116 40.4 116.2 40.5 116.3C41.2 116.5 42 116.8 42.8 117.2C44.3 118 43.5 119.7 42.4 120.4C42.3 120.5 42.2 120.5 42.1 120.5C41.6 120.4 41 120.4 40.5 120.6C40.1 120.8 39.7 120.9 39.3 120.9C39.2 120.9 39.1 121 39.1 121.1C39.1 121.3 39.2 121.4 39.2 121.6C39.1 122.3 38.6 122.6 37.9 122.3C37.5 122.1 37.2 122.1 36.8 121.8C36.3 121.4 35.8 121 35.2 120.7C35.1 120.6 35 120.7 35 120.7C34.3 121.5 33.3 122 32.6 122.7C31.8 123.5 30.8 124.3 29.7 125.2C29.6 125.3 29.5 125.3 29.4 125.2C28.9 124.9 28.3 124.4 27.7 124.3C27.6 124.3 27.6 124.2 27.7 124.2C27.9 124.1 28.1 124 28.4 124C28.5 124 28.6 123.9 28.7 123.9C29.4 123.3 30 122.8 30.7 122.2C31.5 121.5 31.8 120.7 32.5 120C32.7 119.8 32.7 119.7 32.4 119.6C31.5 119.3 31 118.9 31 118.4C31 118.3 31 118.2 31.1 118.1C31.5 117.6 31.5 117 31.4 116.4C31.4 116.3 31.4 116.2 31.4 116.2C31.7 115.1 32.3 114.2 33.4 113.3C34 112.8 34.8 113 35.4 113.4C35.5 113.5 35.5 113.6 35.5 113.6C35.4 113.9 35.3 114.2 35.3 114.5C35.1 114.2 35.2 114.3 35.3 114.3ZM40.7 117.5C40.9 117.5 40.8 117.2 40.7 117.2L39.4 117.1L39.3 117.1L38.2 117.7C38.1 117.8 38.1 118 38.2 118L39 118C39 118 39 118 39.1 118L40.7 117.5ZM35.4 115.7L35.1 115.5C35 115.4 34.8 115.5 34.8 115.6C34.6 116.2 34.3 116.8 33.9 117.3C33.8 117.4 33.8 117.6 34 117.6C34.4 117.8 34.8 117.8 35.1 117.6C35.7 117.2 36.3 116.7 36.2 116C36.2 115.9 36.1 115.8 36 115.8L35.6 115.8C35.5 115.8 35.5 115.8 35.4 115.7Z" fill-rule="evenodd"  fill="#93958A" >
</path>
<path d="M88.7 137.4C89.1 137.6 89.5 137.8 89.8 138.2C90 138.5 89.9 138.8 89.6 139C89.2 139.1 89 139.3 88.8 139.4C88.3 139.9 88.4 140.1 89.1 140.1C90.3 140 91.1 140.1 92.1 140.9C92.2 141 92.2 141.2 92 141.3L91.6 141.4C91.5 141.4 91.5 141.5 91.4 141.6L91.3 142C91.3 142.1 91.2 142.2 91.1 142.1C89.9 141.9 88.5 142 87.5 142.6C86.9 142.9 86.2 143.2 85.5 143.5C84.6 143.8 83.9 143.3 83.5 142.5C83.5 142.4 83.5 142.4 83.5 142.3C83.8 141.8 84.3 141.5 84.9 141.4C85 141.4 85.1 141.2 85 141.1L84.8 140.8C84.7 140.7 84.7 140.6 84.8 140.5C84.9 140.2 85 139.9 85 139.6C85 139.5 85.1 139.4 85.1 139.3C85.3 139.1 85.6 139 85.8 139C86.3 138.9 86.4 138.7 85.9 138.5C85.8 138.4 85.6 138.4 85.5 138.4L85.4 138.4L84.5 138.8C84.3 138.9 84 138.7 83.9 138.5C83.8 138 83.9 137.4 83.8 136.9C83.6 135.7 83.9 134.9 84.2 133.8C84.2 133.6 84.5 133.6 84.6 133.7L85.2 134.4C85.3 134.5 85.5 134.5 85.5 134.3C85.7 133.9 86 133.6 86.4 133.4C86.6 133.3 86.7 133.1 86.7 132.9L86.7 132.8C86.7 132.6 86.6 132.5 86.4 132.6C85.5 133 84.3 133.3 83.6 134C83.5 134.1 83.4 134.1 83.3 134.1C82.6 134.2 81.9 134.5 81.3 134.8C80.9 135 80.6 135 80.2 134.6C80.2 134.6 80.2 134.6 80.1 134.5C79.9 134.1 80 133.9 80.4 133.7C81.8 133 83.2 132.4 84.4 131.7C84.9 131.5 85.5 131.2 86.3 130.9C86.9 130.7 87.5 130.4 88.2 130.1C88.3 130.1 88.3 130 88.3 129.9C88.3 129.8 88.3 129.8 88.2 129.8C88.2 129.8 88.1 129.8 88 129.8C87 130 86.5 130.6 85.6 131C85.2 131.1 85 131 84.8 130.7C84.5 130.1 84.2 129.4 84 128.6C83.7 127.8 84.4 127 85.1 126.7C85.8 126.4 86.2 127.2 86.4 127.7C86.4 127.8 86.6 127.9 86.6 127.8C86.8 127.7 86.9 127.6 87 127.4C87.1 127.3 87 127.2 86.9 127.2C86.7 127.1 86.6 127 86.5 126.8C86.4 126.7 86.4 126.6 86.5 126.5L86.9 125.8C86.9 125.7 87 125.6 87.1 125.6C88 125.2 88.8 124.7 89.8 124.6C89.9 124.6 90 124.6 90 124.7C90 124.8 90 124.9 90 124.9C90 125 90 125.1 90.2 125.2C90.7 125.4 91.6 125.5 91.2 126.4C90.8 127.3 90.5 128.2 90.2 129.2C90.1 129.6 89.6 129.7 89.3 129.6C89.2 129.6 89.2 129.6 89.2 129.7L89.2 129.8C89.2 129.9 89.2 129.9 89.3 129.9C90.4 129.8 91.6 129.6 92.8 129.5C93.6 129.4 94.3 130 94 130.8C94 130.9 93.9 131 93.8 131L92.7 131.4C92.6 131.4 92.5 131.4 92.4 131.4C91.1 130.9 90.3 131.6 89.1 131.6C88.9 131.6 88.8 131.7 88.8 131.9L88.8 132C88.8 132.2 88.9 132.3 89.1 132.3C89.7 132.2 90.4 132.2 91.1 132.3C91.2 132.3 91.3 132.4 91.3 132.4L91.7 133C91.8 133.1 91.8 133.2 91.7 133.3C91.1 134.4 91.9 136.6 90.1 137C89.8 137.1 89.5 137.1 89.3 137.2C89.2 137.2 89.1 137.2 89 137.2C88.9 137.2 88.8 137.2 88.7 137.2C88.5 137.3 88.5 137.3 88.7 137.4ZM88.2 127.3L88.5 127.5C88.6 127.5 88.6 127.5 88.7 127.5C89 127 89.1 126.6 89 126.5L88.9 126.5C88.8 126.4 88.5 126.8 88.2 127.3C88.2 127.2 88.2 127.3 88.2 127.3ZM88.4 128L86.7 128.8L86.7 128.9C86.8 129.1 87.1 129.2 87.4 129.1L88.2 128.7C88.5 128.6 88.6 128.3 88.4 128C88.5 128 88.5 128 88.4 128ZM88.9 135C88.8 135.2 88.7 135.4 88.5 135.6C88.3 135.8 88.3 135.9 88.6 135.9C88.8 135.9 89 135.8 89.2 135.7C89.3 135.6 89.4 135.6 89.4 135.4L89.6 133.5C89.6 133.4 89.5 133.4 89.5 133.4C89 133.5 88.6 133.8 88.5 134.3C88.5 134.4 88.5 134.5 88.6 134.6L88.8 134.8C88.9 134.8 88.9 134.9 88.9 135ZM86.5 135.5C86.6 135.4 86.4 135.2 86.1 135.1C85.9 135 85.6 135 85.6 135.1C85.5 135.2 85.7 135.4 86 135.5C86.2 135.6 86.4 135.6 86.5 135.5Z" fill-rule="evenodd"  fill="#93958A" >
</path>
<path d="M103.7 131.4C103.1 131.7 102.4 132 101.8 131.5C101.7 131.4 101.7 131.4 101.7 131.3C102.1 130.2 102.8 129.4 103.5 128.6C103.6 128.5 103.6 128.4 103.6 128.3C102.9 126.4 102.3 124.4 101.7 122.2C101.6 121.7 101.5 121.2 101.5 120.6C101.5 120.4 101.8 120.2 102 120.3C103.2 120.7 103.1 121.7 103.3 122.7C103.4 123 103.5 123.3 103.6 123.6C103.9 124.3 104.1 125.1 104.2 125.9C104.2 126.1 104.3 126.4 104.4 126.6C104.6 127 104.8 127 105.1 126.7L106.4 125.2C106.5 125.1 106.6 125.1 106.7 125.1C107.3 125.2 108 125.6 108 126.4C108 126.9 107.9 127.4 107.6 127.7C107.1 128.5 106.4 129.3 105.7 130.2C105.6 130.4 105.6 130.6 105.8 130.7C106.8 131.3 108.8 132.6 110 132.2C111.2 131.8 112.6 131.6 114 131.7C114.1 131.7 114.2 131.9 114.2 132C113.5 133.1 113.3 134.3 112 134.8C111.4 135 110.8 135.2 110.3 135.5C110 135.6 109.7 135.6 109.4 135.5C108.5 135.1 107.6 134.6 106.5 133.9C106.4 133.8 106.2 133.9 106.2 134.1C106.3 136.1 106.6 137.4 105 139C104.7 139.3 104.4 139.4 103.9 139.5C103.4 139.6 103.1 139.3 103.2 138.8C103.2 138.7 103.2 138.6 103.1 138.6L102.1 138.2C101.7 138 101.7 137.9 102.1 137.7C103.1 137.3 104.4 136.7 104.5 135.5C104.6 134.1 104.6 132.9 104.4 131.9C104.2 131.4 104 131.3 103.7 131.4Z" fill-rule="evenodd"  fill="#93958A" >
</path>
<path d="M118.5 114.4L119.2 111.7C119.3 111.3 119.6 111.2 119.9 111.3L121.2 111.9C121.4 112 121.5 112.3 121.4 112.5C121.3 112.7 121.3 113 121.4 113.2C121.8 113.9 122.1 114.6 122.3 115.2C122.4 115.4 122.4 115.4 122.6 115.3C123.4 114.4 124.6 113.9 125.7 114.7C126.3 115.1 127.1 115.7 126.7 116.5C126.5 116.9 126.3 117.4 126.1 117.8C125.7 118.8 124.7 119.3 123.9 120C123.7 120.2 123.6 120.4 123.6 120.7L123.7 121.1C123.7 121.4 123.9 121.4 124.1 121.2C124.9 120.5 125.5 119.3 126.8 120.1C126.9 120.2 126.9 120.2 127 120.3L127.1 121.4C127.1 121.5 127.1 121.6 127 121.6L126.2 121.9C126.1 121.9 126.1 122 126.1 122.1C126.7 122.8 127.1 123.7 127.3 124.7C127.4 125.3 127.3 126 126.9 126.7C126.8 126.8 126.8 126.9 126.6 126.9C125.4 127.2 124.5 127.1 123.8 126.5C123.4 126.2 122.8 126.2 122.3 126.1C122 126 121.8 125.7 121.9 125.3C122.3 124.3 122.6 123.2 122.6 121.9C122.6 121.1 122.5 121.1 122.3 121.9C122.2 122.2 122.1 122.5 122 122.8C122 122.9 121.9 122.9 121.8 122.9L120.4 123.1C120.2 123.1 120.1 123 120 122.8C120 122.5 120.1 122.3 120.2 122.1C120.7 121.6 121 121.1 121.1 120.5C121.4 119.6 121.8 118.7 122.2 117.8C122.3 117.6 122.4 117.6 122.6 117.6C123.2 117.7 123.6 118 123.8 118.5C123.8 118.6 123.9 118.6 123.9 118.5C124.2 117.8 124.4 117.2 124.5 116.5C124.5 116.2 124.3 116 124.1 115.9C123.7 115.9 123.3 115.9 123.1 116.3C122.7 116.9 122.3 117.4 121.7 117.9C121.5 118.1 121.2 118.4 121.1 118.7C120.8 119.4 120.6 120.1 120.2 120.8C120 121.3 119.9 121.8 119.6 122.3C119.4 122.7 119.2 123.1 119.1 123.6C119.1 123.7 119.1 123.8 119.1 123.8L121.2 127.6C121.4 128 121.3 128.3 121 128.5C120.9 128.6 120.7 128.8 120.5 128.9C120.2 129.2 119.9 129.1 119.7 128.8C118.7 127.3 117.9 125.7 117.3 124.1C117 123.4 117.2 122.9 117.7 122.4C117.8 122.3 117.8 122.3 117.8 122.2C117.9 121.9 118 121.6 118.2 121.3C118.3 121.2 118.2 121.1 118.2 121.1C117.3 120.6 116.5 119.8 115.8 118.9C115.6 118.6 115.5 118.3 115.6 118L115.7 117.6C115.8 117.3 115.9 117.2 116.1 117.5C116.8 118.5 117.5 119.6 118.5 120.4C118.6 120.5 118.7 120.4 118.7 120.3C118.7 120.1 118.7 120 118.6 119.8C117.4 118.3 116 116.9 115.5 115C115.4 114.8 115.5 114.6 115.7 114.5C115.8 114.5 115.9 114.5 115.9 114.5C116.1 114.6 116.3 114.8 116.4 115C117 115.9 117.7 116.8 118.4 117.8L118.5 117.9C118.6 117.9 118.7 117.9 118.7 117.8C118.7 117.7 118.7 117.7 118.7 117.7L118.5 116.6C118.5 116.5 118.3 116.3 118.2 116.3L117.6 116.2C117.5 116.2 117.4 116.1 117.4 116C116.7 114.8 116.1 113.6 115.5 112.4C115.3 111.9 115.8 111.5 116.2 111.6C116.6 111.7 117.1 111.7 117.5 111.7C117.9 111.7 118.2 111.8 118.3 112.1C118.5 112.5 118.4 112.7 117.9 112.9C117.7 113 117.6 113.1 117.7 113.3L118.1 114C118.3 114.6 118.4 114.6 118.5 114.4ZM120.1 113.6C120.1 113.5 119.9 113.5 119.9 113.6L119.6 114.7C119.6 114.8 119.7 114.9 119.8 114.9L120.5 114.7C120.6 114.7 120.6 114.6 120.6 114.5L120.1 113.6ZM120 116C119.9 116 119.9 116 119.9 116.1L120.4 117.5C120.4 117.6 120.5 117.6 120.6 117.5L121.3 116.4L121.3 116.3L120 116ZM119.4 118C119.5 118 119.5 117.8 119.4 117.5C119.3 117.3 119.2 117.1 119.1 117.1C119 117.1 119 117.3 119.1 117.6C119.2 117.8 119.3 118 119.4 118ZM123.6 125.6C123.5 125.7 123.7 125.9 123.8 125.8L125.2 124.9C125.3 124.9 125.3 124.8 125.3 124.7L125.2 124.1C125.2 124.1 125.2 124.1 125.2 124L124.9 123.5C124.8 123.4 124.7 123.4 124.6 123.5L123.6 125.6Z" fill-rule="evenodd"  fill="#93958A" >
</path>
<path d="M45 133.4C44.5 133.3 43.9 133.1 43.4 133C42.8 132.8 42.4 132 42 131.6C41.9 131.5 41.9 131.5 41.8 131.4C41.3 131.2 41 130.9 40.8 130.4C40.7 130.3 40.8 130.1 40.8 130C42.8 127.4 44.9 125 47.1 123C47.6 122.5 48.3 122.5 48.9 122.1C49.7 121.5 51.2 120.9 52.1 121.4C52.2 121.5 52.3 121.5 52.4 121.5C52.9 121.5 53.3 121.6 53.7 121.7C55 122.3 58.1 123.6 58.1 125.4C58.1 125.5 58.1 125.6 58 125.7C57.4 126.4 58.1 127.3 57.4 128C56.4 129 56 130.2 55.2 131.4C53.6 133.6 52 136.1 49.6 137.5C48.7 138 47.3 136.2 46.9 135.5C46.6 134.7 45.9 133.6 45 133.4ZM54.6 124.4C55.4 125.1 55.7 125.9 55.5 126.8C55.2 128.1 53.2 127.7 53.5 126.5C53.6 126.1 53.5 126 53.1 126.2C52.7 126.5 52.5 127.3 52.4 127.8C52.4 127.9 52.5 128 52.6 128L53.5 127.8C53.8 127.7 54 127.8 54.1 128.2C54.2 128.8 54.2 129.3 54 129.8C54 129.9 53.9 130 53.8 130C53.1 130.2 52.4 130.6 51.8 131.1C51.7 131.2 51.6 131.3 51.6 131.4C51.4 132.2 51.3 133 51.1 133.9C51.1 134.1 50.9 134.3 50.6 134.5L50.6 134.5L50.6 134.6L50.7 134.6C51.2 134.1 51.7 133.6 52.2 133.1C52.7 132.6 53.1 132.1 53.4 131.5C53.9 130.7 54.5 130 55 129.1C55.5 128.2 56 127.4 56.5 126.5C56.7 126.1 56.7 125.8 56.3 125.5C55.6 124.9 55 124.1 54.1 123.8C54 123.8 53.9 123.8 53.8 123.9C53.7 124.2 53.6 124.4 53.7 124.7C53.7 124.8 53.8 124.9 53.9 124.9C54.1 124.9 54.3 124.8 54.4 124.7C54.5 124.3 54.5 124.3 54.6 124.4ZM50.3 122.6C49.7 122.8 49.3 123.3 49.1 124C49.1 124.1 49.1 124.2 49.2 124.2C49.9 124.4 50.6 124.4 51.3 124.3C51.5 124.3 51.6 124.2 51.6 124L51.8 123C51.8 122.9 51.8 122.8 51.6 122.8C51.2 122.7 50.8 122.4 50.3 122.6ZM47.8 125.6C47.8 125.6 47.9 125.5 47.8 125.6C47.9 125.4 47.9 125.4 47.8 125.3C47.7 125.3 47.7 125.3 47.6 125.3C47.4 125.4 47.3 125.5 47.2 125.7C47.1 125.8 47.1 125.9 47.3 125.8C47.5 125.8 47.7 125.7 47.8 125.6ZM49.8 128.8C49.8 128.9 49.9 128.9 50.1 128.9C50.2 128.9 50.3 128.8 50.3 128.7C50.3 128.6 50.2 128.6 50 128.6C49.9 128.6 49.8 128.7 49.8 128.8ZM47 126L47 126C47 125.9 47 125.9 47 126L45.3 127.9C45.1 128.1 45.2 128.2 45.4 128.1C46 127.9 46.5 127.7 47 127.4C47.1 127.4 47.1 127.2 47 127.2C46.9 126.8 46.9 126.5 47 126ZM44.9 130.6C44.6 130.4 44.3 130.1 44.2 129.7C44.1 129.6 44 129.5 43.9 129.7C43.8 129.9 43.7 130.1 43.7 130.3C43.7 130.4 43.8 130.5 43.9 130.6C44.8 131.1 46 131.5 47 131.2C47.4 131.1 47.8 131 48.2 130.9C48.2 130.9 48.3 130.9 48.3 130.8L48.3 130.7C48.3 130.6 48.2 130.6 48.2 130.6C47.3 130.7 46.3 130.7 45.4 130.7C45.1 130.7 45 130.6 44.9 130.6ZM48.6 134.3C48.5 134.4 48.4 134.5 48.4 134.6C48.4 134.8 48.5 135 48.9 135.1C49.2 135.2 49.6 135.1 49.9 134.9L50.1 134.7C50.4 134.5 50.3 134.4 50 134.3C49.1 134.1 49.2 133.3 49.4 132.7C49.4 132.6 49.3 132.5 49.2 132.5L48.3 132.5C48.1 132.5 48 132.8 48.2 132.9C48.6 133.1 48.8 133.5 48.8 134.1C48.7 134.1 48.7 134.2 48.6 134.3Z" fill-rule="evenodd"  fill="#93958A" >
</path>
<path d="M69.3 134.7L68.7 134.9C68.6 135 68.4 134.9 68.3 134.8C68 134.6 67.8 134.3 67.7 134C67.7 133.9 67.7 133.8 67.7 133.7C68.1 133.1 68.9 132.8 69.5 132.6C69.6 132.6 69.7 132.5 69.7 132.4C70 130.2 70.3 127.8 70.7 125.2C70.7 124.9 70.9 124.7 71.2 124.7C71.8 124.6 72.3 125.5 72.5 126C72.7 126.3 72.7 126.6 72.7 127C72.5 128.5 72.3 130 72 131.4C72 131.5 72.1 131.6 72.2 131.6C72.7 131.4 73.2 131.1 73.7 131.3C73.8 131.3 73.8 131.4 73.9 131.5C74 132 73.9 132.5 73.7 132.9C73.7 133 73.6 133 73.5 133.1L72.1 133.5C71.8 133.6 71.6 133.8 71.6 134.1C71.4 136.4 71.1 138.4 70.9 140.4C70.8 141.5 70.6 142.6 70.2 143.6C70.2 143.7 70.1 143.7 70 143.7L68.9 143.6C68.8 143.6 68.7 143.6 68.6 143.7C68.5 143.8 68.5 143.8 68.4 143.9C68.1 144.1 68 144.1 68 143.7C68.1 142.8 68.4 141.9 68.7 141C69 140.2 68.8 139.4 68.8 138.6C68.9 137.3 69 136.1 69.1 134.8C69.5 134.7 69.4 134.6 69.3 134.7Z" fill-rule="evenodd"  fill="#93958A" >
</path>
<path d="M64.6 128.6C64.9 128.5 65 128.2 65 127.9C64.9 127.5 64.8 126.9 65.1 126.5C65.7 125.9 66.3 125.9 66.9 126.5C67.3 126.9 67.7 127.3 68 127.6C68.1 127.7 68.1 127.8 68.2 127.9C68.3 128.6 68.1 129.1 67.4 129.5C66.5 130 65.7 130.4 64.9 130.7C64.5 130.8 64.2 131 63.9 131.3C63.6 131.5 63.4 131.5 63.2 131.2C63 131 62.9 130.8 62.8 130.5C62.8 130.4 62.8 130.3 62.9 130.2C63.1 129.9 63.3 129.6 63.5 129.3C63.7 129 64.2 128.8 64.6 128.6Z" fill-rule="evenodd"  fill="#93958A" >
</path>
<path d="M66 132.7C66.2 132.6 66.4 132.6 66.6 132.6C66.8 132.6 67 132.8 67 133C66.9 134.2 66.1 134.4 65.2 134.9C65.1 135 64.9 135 64.8 134.9C64.5 134.7 64.2 134.5 64 134.2C63.9 134.1 63.9 133.9 64 133.8C64.2 133.5 64.4 133.3 64.6 133.1C64.7 133 64.7 132.9 64.7 132.8L64.2 132C64.1 131.8 64.2 131.6 64.3 131.5C65.1 131 66 130.5 66.9 130.1C67.1 130 67.3 130.2 67.2 130.4C66.9 131.1 66.7 132.1 65.9 132.4C65.8 132.4 65.8 132.5 65.8 132.5L65.8 132.6C65.9 132.7 66 132.7 66 132.7Z" fill-rule="evenodd"  fill="#93958A" >
</path>
<path d="M67 137.4C67.1 137.6 67.1 137.8 67.1 138C67.1 138.1 67.1 138.2 67 138.3C66.2 139.2 64.2 140.5 62.9 140.1C62.6 140 62.4 139.8 62.4 139.5C62.4 138.9 62.3 138.3 62 137.8C62 137.7 62 137.6 62 137.5C62.3 136.5 63 136.7 63.4 136.1C63.4 136 63.5 136 63.6 135.9C64.5 135.7 65.3 135.4 66.1 135C66.5 134.8 66.9 134.9 67.1 135.3C67.7 136.2 66.7 136.7 67 137.4ZM65.2 137C65.2 136.8 65.1 136.8 65 136.9C64.8 137 64.7 137.2 64.6 137.4C64.5 137.6 64.8 137.8 64.9 137.6C65.1 137.5 65.2 137.3 65.2 137Z" fill-rule="evenodd"  fill="#93958A" >
</path>
</svg>
